#define _CRT_SECURE_NO_WARNINGS
#include <windows.h>
#include  <stdlib.h>
#include    <vfw.h> 
#define                    G
#include				  <stdio.h>	
#pragma  comment(lib,"vfw32.lib")
const char* a ="4D546864000000060001000300604D54726B0000000C00FF58040402180800FF2F004D54726B0000001900FF510307A12000FF510307A12000FF510307A12000FF2F004D54726B0000462600FF03094D494449547261636B00B00A4000B0076400E0004000B0650000B0640000B0060C00B00A4000B0076400E0004000C00000B0400000B0650000B0640000B0060C00B00A4000B0076400E0004000C00000B040001B90303A00903C450090353C03B0407F4E90435827803000008035000290353B019030360CB040000EB0407F0F90405228903E502980350000803000019030380090354427803C0002903C4C2990323C01903744038043000080350000803E00008040000080300000803C0001B0400024903C4907B0407F2390434D28803700008032000190323F00903744299040565080320000803700029037430090323F51803C0001903C4C009039400190343A07804300008032000080370000B040000180400045B0407F0590435B27803400008039000290343C0190393C2890405729903E5127803900028034000190343F0090394428903B4C27803400039034350280430000803E0000803B0000B0400001803C00028039000080400023903B3E07B0407F239043582CB040000DB0407F1A90405328903E4A2A8034000190343B05803B0023903C4728803E0000803400008043000080400000803C0001B040000090303C0090353F36B0407F1C9043590DB040001A8030000080350000B0407F029030360090353B2A90405628903E502780300000803500039030380090354329903C4D299037440090323B0480430000803E00008040000080350000B0400001803C00048030001FB0407F01903C4D2990435927803700028032000190323E009037422990405451803200008037000190323F009037424F803C000390343800903C4E009039400480320000B0400001803700008043000080400019B0407F3490435928803400008039000290393D0090343B2990405529903E522780390000803400029039440190343E28903B3D278034000290343703803C0000B040000180430000803E0000803B0004803900008040001FB0407F02903B3A2A904359268034000390343804B040000DB0407F1890405529903E502A8034000190343A27903C492A90303C0090353F0680340002803E000080400000803C000180430003803B000FB040001FB0407F18903C4B26803500008030000290353F0190303A00903B3827803C0002903C4D508035000080300000803C000290354A0190304000903C5526803B0002903B4028803C000190324400903C560290374701B0400002803B00008035000080300011B0407F14903E54508037000080320000803E0002903E50019037440090324178803700008032000290323F019037424F803E0002903E4E0190343C0090393F05B04000018032000580370002803C000BB0407F1190404F5180340000803900008040000190343F00904053029039407880340000803900019039440090343F0E803E00198040000390404E2880340000804000019034350090404B0480390000B0400014B0407F3A903B412780340000803B0002903B3D0190343C52903750288034000190343C29903C4D288037000080340001803C000090353E0090303B01B0400001803B000480400024B0407F28903C4F27803000008035000290303B00903B4B0190353A27803C0001903C4B528035000080300000803C000190354400903C4C0190303C06B040000DB0407F13803B0002903B4C26803C000390323F00903C4C01903744048030000080350001803B0000B040001CB0407F07903E51518037000080320000803E000190324200903E4F019037467980320000803700029037430090324150803E000290393F00903E4E0190343C098032000080370001B0400009803C0002B0407F1390405650803400008040000280390001903941009040520090343F78803900028034000190343F0090394650803E00008034000290343D00903E5009B04000018039000780400006B0407F1290405452803400008040000190343C009040525290415027803400008040000390343F0090405215803E003C90303D0090353D03804000008041000080340004B0400037B0407F15904053278035000190353D0180300000903E4E0190303707B0400001B0407F1F8040000190405350803500028030000080400000903545019040500190303B26803E0001903E4D27804000038035000080300000803E0000B040000090374400904051009032391EB0407F349048512880320000803700019047530090323D019037425290435627803200008037000290374100903240268040000390405329903438009039400480320000B04000018048000080470000804300008037000080400033B0407F178034000390343E27803900008034000290344000903941798034000080390002903C4F019039450090344106B040000EB0407F159043552B803C000080430001B04000058039001CB0407F05903B4A0580340054B0400003803B0018B0407F07903B4A5690343A06803B0001B0400015B0407F0A903C4C2880340000B040000190303A0090353C24B0407F1B803C00118030000290303C28803500008030000190354101903038798035000280300000903C4A009035430190303905B0400013B0407F10904355299037420090323A05803C000080300000B04000018043000480350002B0407F1D90414F50803700008032000390323C009037430090405252903E4E2680320002803700019037410090323E29903C4C2880410000803E0000804000008037000080320001803C000090393E01B040000090343636B0407F198034000290343D29803900008034000190393D0090343C27803900019039362A903C4E278039000280340000903E4C019039400190343C289040522BB0400001803E0000803C0000803400008040000380390013B0407F1090485029904751278048000290484F05B0400008B0407F1B804700019047532A9043562A90343A2890405129B040000090303A00903C4400903539018047000180430000803400008040000380480021B0407F2C90434C2680300000803500039030380090353E05B0400013B0407F1190404B29903E4C2880300000803500019035460190303A26803C0003903C4C29B04000009037450090323C028035000180300000803E000080400000803C000380430023903C4A0BB0407F1E90434527803200008037000290374501903240299040544F803700008032000390323E0090374250803C000190394001903C4C0190343A05B040000180370000803200018043000080400028B0407F2290435927803400028039000190393C0090343B2990405329903E4C2880390000803400019039430090343E28903B4B2C80430000803E00008039000080340001803B0000B0400002803C000080400019B0407F0B90485200903B3B2A903439009043550090475527804800019048502780470002803B0001903B4700904053009047552880430001903E4801803400009043482A90343D26804000019040482990303A0090353B01903C4B03B0400003804800008047000080430000803B000080340000803E00008040001EB0407F2E9043572680350000803000039030360090353A04B040000DB0407F1890405329903E492880300000803500019035440190303826803C0002903C4D2990323B01903743018030000080430000803E00008040000080350000803C0001B040001FB0407F07903C4D2A9043572880370000803200019037410190323F2890405250803700008032000290323F0090374251803C0001903C4B009039400190343906B04000018037000080320001804300008040001BB0407F2F90435727803400008039000290343B0190393D2890405229903E5127803900028034000190343E0090394428903B3C26B04000018034000390343401803C000180430000803E00008039000180400001803B001EB0407F0790485100903B372A90435500904755258048000390485102B040000DB0407F1880470002904755019040502880430000903E4A0190434A298034000190343D258040000390404700903C4628803C000190303D0090353D01903C440680430000804700008034000080400001803E0002803B000680480010B0400012B0407F2090434D2780300000803500029030380090353E2A90404C28903E4C27803000008035000390303A0090354528803C0001903C4D299037440090323B03B04000038035000080430000803E000080400000803C00058030001E903C4A05B0407F249043452780370002803200009037450190323E299040535180370000803200019037420090323E4F803C000390343900903C4C009039400C80400000804300008032000080370001B040001AB0407F04B0400015B0407F1390435927803900008034000290393C0090343B2990405429903E4B27803900008034000390343E0090394228903B4B2E80430000803E00008034000080390000803B0001803C0000B040000280400015B0407F0C903B3A019048502990435600904754268048000390485028804700019040500090475427804300029043492B90343A258040000390404828803B00019030400090353D058040000080470000803400008043000580480011B040003790435807B0407F2180350000803000019030340090353A2990405229903E492780300000803500029035430190303728903C4C299037420090323702B0400005804300008040000080300001803E00008035001F803C0002903C4C02B0407F289043552780320000803700029037400190323D2890405150803700008032000290323E0090374050803C000290393C0190343600903C4406B040000280430000804000008032000780370017B0407F2C90435628803900008034000190343A0190393B2990405228903E4F2880340000803900019039410290343C25803C0002903C4A1D80430000803E00008040000080390005B0400007803400019034300EB0407F1B90485028803400019047500190342F268048000290484C03B040000DB0407F1780470003904750299043542A8034000190343503803C002490404F278048000390303C009048480090353B0580340000804300008047000180400010B0400004B0407F3580300002904F4F0190433F009030320090372F26803500008030000290353D019030372990404500904C4D1D803700098030000280350000903E3E01904A53009030310290352C268030000080350001903542019030372680480003903C350090484E289037420190323B03804C0000804F00008035000080480000B0400001803000008043000080400000804A0000803C0006B0407F04803E001A903C36009048492780370003904F4F009037340190434026803200008037000290323D00903742288037000190404400904C52019037364F80320000803700029037410090323C5080480002803C000090393D019034370090484C01903C37078043000080320000804C00008040000080370009B0400004B0407F05804F001B803C001D80340000904F4E019043440290342723803400028039000190393A0090343B288039000080340001904C52009039320190343300904047268039000080340002904A5200903E40019034300090392E27803400008039000290343B0090393F2880390001903935009047520490372B24803400019034342780470002903B330090474728804F000080430001904F5001904342028034000190342E4C804C000080340002804000009034360190404500904C5427804A000280400000904A5201904039298034000190343626804800019048512890353F0290304205803E00038047000080340000803B0000804F000080400000804C0000803700008039000080430000804A0010B04000328048000680300001904F4F0090303001B0407F009043472680350000803000029030380090353D29904C5401904048268030000290303301904A5400903E410380350001903527228035000280300001903039009035452990485001903C392890323C0090374504B040000DB0407F1780480000803C0001903C370090484E048037000480350002803E00028040001B804F0002804300019043410090372D00904F512780320000803700019037430190323E26804C000390404700904C5450803200008037000190323E0190374151804800019034380090484E0090393E01803C00008040000090404201903C380480370000804F0000804C00008043000080320000B040000280300002804A000680400009B0407F388039000080340001904F510090342F019043460090392E26803400008039000290343B0090453D0190393C2990404700904C5329904A5301903E412580340000803900039039420090343C2990474900903B3301804000268034000290343608803C0000804F000080430000803E0000804A0000804C0000803900008047000180480000803B00008045000680340009B040001090342D0190474801903B2E1FB0407F0A90434700904F52018034000290342E23803400039034392990404600904C552880430001904A5401903E3C0190433928803400019034392790484B00903C3529903042009035400E804C00008043000180470000803E0001803B0000803400068040000E804A0007B0400004803C0023804F000190434400904F4E06B0407F2180350000803000019030370090353D2A90404700904C5329904A5401903E3D26803500028030000090354301903036278048000190484F02903C372890323A0090374303B0400001804F00008043000080350000803E000080400000804C0000804A000080480000803C000580300002B0407F1E903C390090484F27803700029037320090434400904F5026803700028032000190323F0090374329904C53019040464E803200008037000390323E009037415280480000803C0000804000019034370090484D0090393F01903C3A009040440680430000804F0000804C0000B040000580370000803200028040000CB0407F3580390000803400039043440090392D0090343000904F5028803900008034000190393B0090343A29904C530190404628904A5301903E3C02803900019039282380340000803900039039410090343D29904753018034000290372D009034310180400003904037238039000" "1804F00008040000180430000804A000080340001803C000080470000803E0001B040000180480000804C00048037001F90475201903B340090372C0AB0407F1D8037000190372A019043440090343200904F5026803400039034382980340000904C510190342F009040422780430001903E3A00904A540290433828803400029034382690485000903C3A299030400090353C05804F0000804C00008034000180470000803B00008040000080430000804A0000803C0005803E00008037000AB040003B80300002B0407F00904F4F0090302F029043442480350000803000039030380090353D2A90404800904C532680300003904A540090303001903E3C268035000080300001903544019030392680300002804800009030380190484F01903C38289037440090323A0380430000804F0000804C0000803E000080400000804A00008035000080480000803C0000B040000780300004B0407F1B90484F01903C3B278037000190434401904F50019037322580320000803700029037440190323F2990404600904C5401803700019037354D80320000803700039037420090323E508048000080400002803C000090393F0090454601903C39009034350090484E0090404704804F00008032000080430000804C0000B04000048037000280400015B0407F30803900008034000290342F00904F4F019043460090392E2680450000803400008039000290343B0090453D0190393C2990404600904C5229904A530180390000903E3D0390392B2480340000803900019039410090343C2A904753018034000190372D0190342F02804000019040361F8034000290343505B040000180430000803C0000804F0000804C00008039000180470000804A00008040000380480000803E0002803400008037000080450019B0407F0590343001903B35009047530190372D278034000080370001904F5101903433009043460090372B268034000290343929904C530190404328904A55018043000090433800903E3D288037000190372F018034000190343727903C3B0090485028B040000090353B0090303E0180470000803B0000804F000080370000804C000080400000804A00008034000180480000803C0004803E000280430036B0407F15903C4A268030000080350002903B3A0190353E0090303B28803C0001903C4F518030000080350000803C0001903C55009035490190303F26803B0002903B4027803C0002903C58019037490090324601B040000380300000803B000080350012B0407F12903E54528032000080370000803E00019037450090324200903E507980370000803200029037440090324151803E000190394000903E4F0190343C05B040000180320007803C000080370008B0407F1490405050803400008040000280390000903440009040530190394078803400008039000280400000903945019040400090344114803E00138040000190404D2780400002803400019034350090404C0480390000B0400018B0407F35903B4027803B00028034000190343B00903B3D529037512A8034000190343C27903C4E2A8037000080340000803C000090303B0090353D01B0400001803B00048040002CB0407F20903C5027803000008035000290303B00903B4A0190353B26803C0002903C4B5080350000803C00028030000190303B0090354500903C4D08B040000AB0407F16803B0001903B4C27803C000290324100903C4B0190374304803B00008030000080350000B040001AB0407F0A903E51508037000080320000803E0002903E4F0190374600903243788037000080320003903242009037444F803E000390343C0090394000903E4F0980320001B040000680370000B0407F04803C0015B040000090405616B0407F3B8034000080390000804000019040520190343E0190394178803400008039000290343F00903946018040004F803E00008034000290343B00903E4E0980390000B040000DB0407F1390405450803400008040000390343C00904052529041500D803E001B80340000804000019040500290343C5090353C0190303B02804100008040000080340003B0400031B0407F1C90405326803500028030000090353E01903E4D01903037268040000290405350803500008040000280300000903543019040500190303A25803E0002903E4D2880400001B040000090323700904050018030000080350000803E000090374317B0407F3A90485128803700008032000290323D009047520190374252904356268032000080370003903740009032402780400002904053299034380090393F03B0400001804800008032000080430000804700008040000780370026B0407F1F8034000290343D26803900028034000190343E009039407A8034000080390001903C4D019039420090343E06B0400009B0407F1A9043562A80430001803C0001B040000580390011B0407F10903B4C5AB0400001803B0010B0407F0C80340004903B4C5590343C07803B0002B0400015B0407F09903C4C2880340000B040000190303B0090353E24B0407F06803C00268030000290303E2780350002803000009035410190303905B0400009B0407F6C8035000080300001903C4A009035430190303C05B0400010B0407F139043562990323A0090374204803C00008035000080300000B040000280430007B0407F1C90414F518037000080320001904051009037440190323C52903E4E2780370000803200029037420090323E29903C4B278040000180410000803C0000803E00008037000080320001B04000009034360090393E2EB0407F238034000190343C27803900008034000390343E0090393F268039000390393828903C4E29803400008039000190394100903E4E0190343D299040522BB0400001803C000080390000803E0000803400008040000DB0407F1990485129904752288048000190484E05B0400009B0407F1980470002904752299043562B9034382890405228B040000190303A00903C4300903539018047000180480000804300008034000080400022B0407F2E90434C27803500008030000190353E0190303803B040000CB0407F1A90404C29903E4B2780350002803000019030390090354527803C0001903C4C2AB04000009037440090323C038035000080430000803E00008040000080300000803C0026903C4906B0407F2390434426803700028032000190323E009037452A9040535080320000803700019037420090323D50803C000290393F01903C4C0190343806803200008043000080370000B040000180400015B0407F0CB0400015B0407F1490435827803400008039000290343C0190393C2990405328903E4C2780340000803900039039430090343F28903B4B2C803E00008039000080340000803B000180430000B0400001803C00028040001CB0407F0790485000903B392A9043550090475426804800039048502780470000803B00019047550190405201903B46278043000190434900903E4A2A90343C26804000029040492990303A0090353B01903C4B04B0400001803B0000804700008034000180430000803E0000804000068048001AB0407F2C9043582780300000803500019030360090353B2A90405229903E492780300000803500029035440190303925803C0003903C4D2990323A019037430180350000B04000018043000080300000803E000080400007803C001DB0407F02903C4D2A90435726803200008037000390323E00903742299040524F803200008037000390323F0090374250803C0002903C4D0090393F0190343806B040000180430000804000008032000580370019B0407F2D90435828803400008039000190343B0190393C2990405328903E5127803400008039000390343E0090394428903B3C1D80390008B0400003803C00008034000190343501803E000280430001803B00018040001BB0407F0A90485200903B3728803400019043550090475501903439268048000290485102B040000BB0407F19804700039040510090475603804300029043382280430002903E490190434A2A8034000190343C1F803B00068040000190404700903C4629803C0001903C440090303D0090353D09803400008043000080470001803E000080400003B040000280480028B0407F1C90434D2580350002803000019030380090353E09B0400015B0407F0C90404C28903E4B2880300000803500019035450190303A26803C0003903C4D299037440090323B05B0400001803E00008040000080350000803C00018030000180430021903C4A09B0407F209043452780320000803700029037440190323F299040544F80370000803200039037420090323E50803C000190394001903C4C0190343A0B80430000803200008040000080370000B040002FB0407F1790435827803400028039000190393C0090343C2990405328903E4C2980390000803400019039430090343D28903B4C27803400039034380580430000803E000080390000803B0001B0400001803C000080400019B0407F028034000790485100903B392A90435500904754278048000190484F07B0400007B0407F198047000390405000904755288043000190434900903E482B90343C24804000039040482990303B0090353B01903C4B05B040000180480000803B0000804700008034000080430000803E00058040001FB0407F289043572680350000803000039030360090353C2990405229903E492680350002803000019030390090354405803C0024903C4D2990323A0190374203B04000028043000080400000803E0001803500008030001BB0407F06803C0001903C4C2A90435628803200008037000190323E00903741299040525080320000803700029032400090374251803C000190343600903C440090393D09B04000018043000080370000804000008032001BB0407F2E90435627803900008034000390393B0090343A2890405129903E4F27803900028034000190343C0090394127803C0001903C4A2480400000B040000280430000803E000780390008B0407F1E90485029904750288048000190484D03B040000CB0407F18804700029047510C803C001E904356148034001790343727904050288048000190303D0090353B00904849058047000080340000B04000018043000080400012B0407F398030000190372F0090303300904F51029043432580350000803000029030390090353E2A90404600904C4F2780300001904A540090303200903E3F018035000190352D168037000F803500028030000190303800903544288048000190484D01903C362990323D0090374304804F00018043000080350000804A0000804C00008040000080480000803C000580300000803E0010B040000E903C35009048480DB0407F1A80370002904F4E009037330190434126803700028032000190323D0090374327803700029037360090404600904C535180320000803700019037400090323C5180480000803C00019034360090484C0090393E02903C3807804300008032000080370000804C000080400001B0400010804F0000B0407F28803C001080340001904F50019034290090434326803900008034000190343B0090453B0190393A26803900028034000190404900904C5400903933019034312780390000803400019034300090392E00904A520090372A00903E3E27803400008039000390343C00903940278039000190475101903936028037000190372C2E80430000804F0000804C00008034000180470000804A0002803E00028048000080400002804500028039000480370001B0400002B0407F06B040000B903B31009047460CB0407F1D904F51019043422890343A0DB0400005B0407F1680340001904C540090343501904046039037242580430000904A53019043372980340003903439269048502890353D0190303F08804F0000804C000080340001803B0000804A00008043000080400000803700038047000FB040003180480003B0407F03904F50019043442780300000803500019030370090353C29904C54019040482580300003904A5300903E40009030310380350002903525228030000080350002903544019030382990484E01903C37289037440090323B06B040002080480002803C0001903C350090484F04803700058035000280400000803E0002B0407F1B80430000804F00029043430090373000904F512680320000803700029037430190323E27804C0001904C53019040464F80320000803700039037410090323E51803C000080480000804000019034350090484C0090393E0290404300903C3A0480320000804F0000804C000080430000B04000018030000480370000804A000480400011B0407F308034000080390002904F510" "09034300090392E0190434627803400008039000190393C0090343A0090453C2A90404700904C5329903E4000904A5327803900008034000190343A019039402980400000903B31009047473080340001803C0000804F000080430000804A0000803E000080470000803B000080390001B04000018048000280450002804C000BB0407F0F90342B0190474601903B2E01B0400015B0407F12904F4F01803400009043430290342D248034000390343703B0400008B0407F1E90404400904C532980430000904A5301903E3B01904337288034000190343627903C330090484A2990353E019030400C80430001804C0001803B000280470000803E0002803400048040000D804A0006803C000AB0400005804F001A90434300904F4F07B0407F1F80350000803000029030380090353E2A90404700904C5329904A5302903E3D268030000080350001903543019030372680480003903C380090484F289037450190323A03B0400001804F00008043000080300000803E0000804A000080400000804C000080350000803C000080480008B0407F1C90485001903C3C2880370001904F50009043440190373126803200008037000290323E009037432990404500904C5301803700029037354D803200008037000290323D009037425080480002803C00008040000090393E01903C3800904041009034370090484E078043000080370000804F000080320000804C0000B040000880400009B0407F388039000080340001904F4F0190342F0090392E0190434525803400008039000390393B0090343B2990404600904C522A903E3C00904A53018039000290392A2280340002803900019039400090343D278039000390393800904753038034000190342E0090372D28803C000080390001804F000080430000804A000080400000804C0000803400018047000180480000803E0001B04000018037002090342F0190475301903B330090372C05B0407F22803400008037000190372900904F50019034320190434626803400029034392990404200904C53018034000190342F2780430000904A5401903E3C0190433926803700028034000090372E0290343726903C3B00904850299030410090353D05803B000080470000804F0000804A0000804C0000804000008037000080340000803C000080480005803E00018043000DB0400033B0407F0680300001904F500090302F029043432580350000803000029030390090353E29904C540190404829903E3D00904A54268035000280300000903544019030382990484F01903C39289037430090323B02804F000080350000804C0000803E0000803C000180430000804A00008048000080400000B040000680300006B0407F1A903C3B00904850298037000190372F00904F51009043452780320000803700019037430190323E288037000190404700904C53019037374F803200008037000190323E009037415280480000803C000080400001903438009040460090484E0090393E0090454501903C3B03803700008043000080320000804C0001804F0000B040000780400013B0407F32803900008034000190342E00904F500190392D009043442680450000803400008039000290393B0090343A0090453B2A90404700904C5329904A5301903E3E01803900029039292280340000803900039039410090343C28803900019047530190393701803400028040000090342E0090372C03904037208034000190343505803C000080430000804F0000804C0000803900018040000080470000804A0002B04000018048000080450000803E00018034000080370016B0407F0A90475302903B370090372F25803700039043440090372C00904F520190343127803400019034382980340000904C51019040430190342F27904A540180430000903E3901904334268037000290372E018034000190343301803B0002903B2724903C360090484E28B04000009030380090393C0090354101804700008034000080430000804F0000804C00008040000080370000804A0000803B0000803C000080480004803E0011B0407F1180300002803900009040400190392D009030382680350000804000008030000290353C0090303D0190404501803900019039312580400000803000028039000090303B009040410190392C25804000008030000280390000803500019040460090303A0190353801903933248040000280390000803000008035000190353B0090303B0090404501903932268035000080300000804000028039000090353D0090304001904046019039322480350002803000008039000080400001903039009035430190404201903938258040000290404701903B360090323D009037410380300001B0400005803500008039000FB0407F068032000880400000803B000280370000904041009032360190373800903B3127803200008040000080370000803B00029040460090323900903B350090373E268040000080320000803B0002803700009032380190373A00903B3200904042288032000080370000803B0000804000019032390090373D00903B3601904046268032000080370000803B0000804000029040450090323401903B2E0090373625803B00028040000080320000803700019040460090373C00903B360190323A268040000080370000803B000080320002904048009032400090374000903B3926B040000180400001803200008037000090404501803B0000903C3D019034380090393A0EB0407F19803C0000804000008034000080390001904042009034380190393201903C3425804000008034000080390000803C000290404600903C3D0190393B00903439268040000280340000803C0000803900009040410190392F0090343500903C32278040000080340000803C0001903C4200904047018039000090343E0190393D2780340000803C00008040000080390001903431009040420090393301903C3326803400008040000080390000803C0002903C41009040460190393D0090343E26804000008039000080340002803C00009039380090404801903C3500903431278034000290374001903438028040000080390000803C0000B0400003903B2704B0407F1E803700019037360090484F0190403C27803700019047510090373F2780480000803700029037380090484F2880340000804700008037000190343C009047530290373E2580340000803700029043440090343801903740288037000190374B27804000008037000190404900903742299035440190393C0090303C06B040000380480000803B00008037000180470000804300038034000280400013B0407F06803000008039000090404001903037009039302780400000803500008030000190303D01803900009040450090353C02903933268030000080400000803900019040420190303B0190392E25803500008040000080300002803900009040460090303A0190353A01903933258030000080400000803500028039000090303D0090353D00904045029039322680400000803000008035000190303F0090353D01803900009040460290393124803000008035000280400000803900009035440190303B019039390090404227804000019037420090323D0090404601903B380280350000B04000058030000080390010B0407F0F803B000080400000803200008037000190323801903B3200904040019037382780320000803B000080400000803700019032390090404600903B360090373E278032000080400000803B0000803700019032370190404100903B300190373926803B0000803700028032000080400000903B3501904045009032370090373D27803B00008040000080320000803700019040440090323401903B2C00903735268040000080320000803B00008037000390323B009040480090373D00903B362680370000803B0002803200008040000090374000903B3A019040480090323F26B0400001803B0000803700008040000080320001903C3C00904046029039390090343A10B0407F1580340002803C00008040000080390001903930009040410090343801903C3326803900008040000080340000803C0002903938009034370090404600903C3B278034000080400000803C000280390000904042009034350190392E00903C3325803C000280340000804000008039000190404700903C440190343D0190393E25804000008034000080390002803C0001903C3400903434009039340090404326803C0000804000028039000080340000903C43009040470190343E0190393D2680400000803C00008034000290404801903C3700903432289037400480400000803C0002B0400000903B2B0380390006B0407F188037000290484E019037390290403A268037000190373F0090475227804800008037000190484F01903739268034000080470002803700019047540090343E0190373E2580340002803700009034380190373F009043432780370002803B0001903B3C0090374B2580400000803700039040490090374225B0400002803B000080370001804300008048000080470001903039009035420190393C01803400048040001DB0407F0680390000803000009040410190392E0090303825803000028040000080350001904044009035390090303D01803900029039322480300000804000028039000190303A009040410190392D2580350000803000028040000090353D0090303A0190484D0180390000904047029039312480400000803000008035000280390000903539009040420090303A0290393024803000028039000080350000804000019040440090353B0090303F02903931258040000080350000803000028039000090303A009035420190393400904042268048000190323E0180400000903B3801803500008030000080390000B040000090373F009040480090484F12B0407F1380320002803B0000803700009032390280400000903B30019037360190404322803B0002803200008048000080370000903B34028040000090484E019040480090373E0090323A28803B000080400000803700008032000190373700903B2F0090403E0090323625803B00028048000080370001903B34018040000090484D019040490090373B258032000280370000803B000080400001904043009032340190373601903B2D25804000008032000080370000803B0002903B350090373C0190323A0090404626803B0000803700008032000280400000903B3900903740019040470090323F27804800008040000190404B00903C420190393A0090484D0090343A01B04000038037000180320000803B000EB0407F138034000080400002803C00008039000090404301903C3200903932009034362" "880400000803C000080390000803400019040450090343700903C3C00903939278040000080340000803C00008039000190343701903C34009039310090404226803C0000804000028034000080390001903C460090404F0190393C0090343D26803C000080400000803900008034000290343401903C3500903935009040432680340000803C0000804000028039000090404700903C430190393E0090343E27803C000080400000803900008034000190404901903C38009034320090393926804800039037410090485016803900128037000290373600904A5205903B2208803C0019804800008037000190373F0190484F0680340022803700019037310190342F04803B002280480000803700028040000090484E0090373E02904042258037000390373E278037000290374C2680400000803700039040420090374326804800038037000090303B009035440090484E0190393A01B040000280340002804A0012B0407F0F8040000080300002803900009040400190392E009030352580350000803000028040000090303D019040450090353B0180390001903931258030000080400000803900029040420190303B0090392F268035000080480000803000028040000090353C0090303A019040470090484E0180390001903931258030000080350000804000019040430090303A018039000090353901903930258035000080400000803000028039000090303F019040450090353D0290393024803500028030000080400000803900009035420190303A0090404201903937268040000290404B00903B38019037410680300000B04000048035000080390006B0407F15803B00028037000090323A0190373900903B3200904A54018040000190404224803B000180480000803200008037000080400001903B350190323B0090484D0190404A0090373F26803200008040000190323701803B000080370001903B30009037370090404025803B000280480000804000008037000190484D00903B360190373C0190404A25803200008037000080400002803B0001903B2E00903737009032340090404528803B000080370000803200008040000190404600903B360090373C0190323A2680400000803B00008037000080320001903B3A00903740019040490090323F268040000280480001B040000090484D0090343A00903C420090404C0190393A01804A000080320000803B00008037000EB0407F17803900008040000080340002803C00009040400090343401903C2F00903931268034000080400000803C00008039000290343600903C3B0090404401903938258034000280390000803C0000804000019039300090403F0090343701903C332680400000803C0002803900008034000090404D0190393B0090343A00903C4428804000008039000080340000803C000190393200903C3200903431009040402780390000803C0000803400008040000190404400903C410190343B0190393B2580400000803C000080340000803900019039380290343000903C3600904047278048000290484D01903740028040000080390000803C0001B040000680340004B0407F1B8037000190373600904A52009034350390403724803700008040000190373F01904C5301904042258034000080370003903430009037372880340000803700019047510090343C0190373F26803400008037000290373D0190343527803700019043530190374C01903B3D258048000080400000803700029037410090484E0190404424B0400002803B000180430000804C0000804700008037000080480001903038009035410190393B0180340000804A0013B0407F138040000080390000803000019030380090403F0290392F258030000290303D01904F5201803900039039322480400000803000008039000190392F0090303C0090403F258030000390303D018040000190404600904C55018039000190393023803000028039000190303A00904A52019039330190413C258035000080400000803000028039000090303F01903932009040440090353D2680350002803000008040000090484E00903544019030390090404801803900029039352480400001903238009040420190373E01903B3304B0400001804C00008039000080480001804A000080300001804F0002804100018035000AB0407F11803B00028037000080400000903B2F019037340090484D0190404325803B0002804000008032000080370000903B320190373D00904F50009032360190404526803B0000803700008032000080400002903B2D0090403D009037370090323526803B0000803700028032000080400000903B3701904047009032380090373D00904C530290433925804000008032000080370002803B000090403F0090322F01903B2A0090373526803B000080370002803200008040000090373A00903B340190404100903237088043001D803B00008037000280400000803200019040450090323B0090373E00903B38278048000080400002903C3F0090404A01B0400000903938009034390090484C04803B0000804C00008037000080320003804F0008803C0002B0407F0D8040000A803900008034000190403F0090343401903C30009039302680340000803C0000803900028040000090343800903C3C00904F4F01904043009039360580480020803400008040000280390000803C000090343701903C320090392E0090403F2780340000803C0000803900028040000090343D00904C540190393C00903C4002904046248034000080390002803C0000904A500090393401903C3800903437278040000080390000803C00008034000190343C00903C410190393C009040422680340000803C00008040000290404801903C3C0090343700904750288034000190373F01803C000090343A0180400001804C0000B040000180390008B0407F1B804700008034000190343701803700009047520190373904903B232180370002804F000080340001904F500090373E01804A0000903437268034000080370002903436009037382980370001904C520090373F0390403D248037000190373E01904A52288037000190374B26803700028040000090484E00903743019040452990393B0090303A0090354105B040000180470000804F0001804C0001803B0001804A00028034000080370000804800108040000B8030000280390001903930009030350090403C01B0407F26803500008030000190303A0290353800904F50018039000290392E2380400000803000028039000190392D0090403E0090303925803000028040000090303C0280390000904C54019040460190393024803000028035000080390000904A5100903039019039310190353427803000008040000080390000803500019040420090353A0090303D0190393126804000008035000080300002803900009040480090484D009035410190303802903935238040000390323A0090373E0090404602903B3301804C000080350001804A00008048000080300000B0400001804F000480390009B0407F14803B00018037000080400001903B300190484E01903737009040462680320000803B00008037000280400000903B340190404500904F510090373F0090323927803B0000804000008037000080320001903B2E0090403E009037380090323527803B0000804000008037000080320002903B380190404A0090323B0090373E00904C5428803B0000804000008032000080370001903736009040400090323201903B2E26803700008040000080320000803B000290323900903B340090373B019040432580320000803B0000803700028040000090373F019040450090323E00903B38278040000190404B01903C400190393A0090343901B0400001803B000180480000804C00008037000080320004804F000AB0407F15803400008039000080400002803C00009040410090343501903C3000903932278034000080400000803C00008039000190343700904F50019039380090404700903C3C26803400008039000080400000803C00029040400090343701903C34009039312880340000803C00008039000190343E00904C54018040000090393D00903C40019040452380390002803C000080340001904A50009039350190343701903C3A25803C000280400000803900008034000190393C0090343B00903C42019040412680340000803C0000804000029047500090404801903C370090343427B040000E80390000803C0001804C000080400009803400118047000190475102903B1D05804A0002804F0017B0407F0990372101904F5103803B004F904C54048047000290472A2080370003904A530090372950803700029037240190484F2780480000903031019035370190484501903C2E049041371E804A0001804F000080470003804C00018037000480300000B040001FB0407F0680350000803C000090302A00904F5001903C2B009037250190352B4E8030000290302901904C4E2780350002904A520190352B4E8048000280370001903E3C00903232009037430090484A02904341068035000180300002804F0001804C000480410042803700008048000190484A0090372810803C001780370001904F4A0180430000903730029043300F8043000190431B40904C56811D804C00058048000280370000904849009039360190453F00904042009037280480430000804F0002804A0003B040000780370015B0407F2C80400001904F5202904035018045000290452308803E00308048001580400000904C56019040382780400001904A520280390000904039018045000190483D0190452B4D80400000903B3400903431019040400090474201903726248032000080480006804F000F80450002804C0000804A000080470015803400019034260090474827804000008034000290403800904F510190342D5080340001904C560190342B5180340001904A530090342F01804000019040374E903033029048470090353A01903C330390413702804C0000804A000580340002803B00008047000F804000028037000D804F00178030000E803C000080410002904F510090413500903C2A53904C5729904A524F80480003903E3D00903743009032350090484A0190433F0680350002804F0000803C0000804C000780410040804800008037000280430000904849009037290190432E28904F4F038037000280430000903729019043254D904C550480370002903727811C804800008037000290484A009039360190453E009040410090372C06803E0001804F000080430000804C0003804A00028032000A8037003B80400000904F500290403202804500019045204C803900028040000090392900904C4F01904037278040000090322C01904A520090372A018048000190403901804500019045290090483D4C804800028040000090484600903B35009034330190404214804F003890546403803700029037290C8039000D803200048037000A80340000803B000290342C00903B28009037230090535005804A0023803700019037200180450008805440009054641E8037000080530000803400029037250090534F019034282780544000803700008034000190372501904F510090342751804C000190302601904C500DB04000298030008320B0407F8142B04000228053000080400000803B0000804F0000804C007C8048002AB0407F0A80340081438037008169B040001DB0650000B0640000B0060C00B00A4000B0076400E0004000C00000B0400001B0650000B0640000B0060C00B00A4000B0076400E0004000C00000B0400000B0650000B0640000B0060C00B00A4000B0076400E0004000C00000B0400000FF2F00";
const char* b[] = { "总想要透过你眼睛去找寻最原始的野性","没想到最后却闯进一整座森林的宁静","你呼吸蓝丝绒包裹身体","和海洋的哼鸣我永远不愿醒","我可以躲进你的身体","进入温暖的你","躲进你的身体","进入温暖的你","躲进你的身体","总想要透过你眼睛去找寻水仙的倒影","没想到最后却目睹一整个宇宙的繁星","这一秒只想在爱里沉溺","这世界是块冰就让她是块冰","我可以躲进你的身体","进入温暖的你","躲进你的身体" ,"进入温暖的你","躲进你的身体" };
int c[] = { 14500,7000,7000,4000,6700,7500,7000,7000,6000,30000,7000,7000,4000,6700,7500,7000,7000,6000,86000};
//甜甜甜田丶注：
//数组a存放着midi歌曲的十六进制编码，要获得此编码很简单，只需网上下载一首midi格式的歌曲，后缀名为.mid然后用010editor打开，点file，export hex即可导出它的十六进制文件，然后把得到的十六进制拿到网上在线去空格，去回车后赋值给数组a即可
//数组b存放着歌词
//数组c存放着两端歌词之间间隔的时间
    char* d = NULL; 
    void e() {
    printf("\r\n\t\t\t\t              溯\r\n\r\n");
    printf("\r\n\t\t\t\ 制作 甜甜甜田丶  母代码 偶尔有点小迷糊\r\n\r\n\n\n");
    int n = sizeof(c) / sizeof(int);
    int i = 0;  
    while (i < n) 
    {
       Sleep(c[i]); printf("%s\n", b[i++]); 
    }
    Sleep(  '(' *  'n');    Sleep(1 << 12);
}
void f() 
{

    int g = (int)(strlen(a)); int h = g >> 1; 
    char j[2]; d = (char*)malloc(18033);
    //这里malloc申请数组a的一半
    for (int i = 0; i < g; i += 2)
    {
        j[0] = *(a + i); j[1] = *(a + i + 1);
        long k = strtol(j, 0, 16);
        if (d) 
            d[i >> 1] = (char)k;
    }
}
void m(TCHAR* n)
{
      HANDLE p = CreateFile(n, 1 << 30, 1, 0, 3, 1 << 7, 0);
      WriteFile (p, d, 18033, 0, 0);
      //这里第二个参数和malloc申请的是相等的
      CloseHandle(p);
}
void q() {TCHAR r[260]; TCHAR s[26 * '\n'];
    TCHAR t['-' << 2] = { 0 }; GetTempPath(260,r); 
    GetTempFileName(r, TEXT("railgun"), 0, s);
    wcscpy(t, s);
    wcscat(t, L".mid");
    MoveFile(s, t);
    m(t);          
    HWND u;
    u = MCIWndCreate(GetForegroundWindow(),GetModuleHandle(0), WS_CHILD|8,t); 
    if (MCIWndCanPlay(u)) 
    {
        MCIWndPlay(u); 
    }
}int main()
{
    f();
    q();
    e();
    free(d);
    return  0;
}
